<svg xmlns="http://www.w3.org/2000/svg" viewBox="0 0 200 200" fill="none">
  <g transform="translate(100, 100)">
    <circle r="25" fill="white"/>
    <rect x="-8" y="-70" width="16" height="45" fill="#625DF5" rx="8"/>
    <rect x="-8" y="25" width="16" height="45" fill="#625DF5" rx="8"/>
    <rect x="25" y="-8" width="45" height="16" fill="#625DF5" rx="8"/>
    <rect x="-70" y="-8" width="45" height="16" fill="#625DF5" rx="8"/>
    <rect x="-8" y="-8" width="16" height="16" transform="rotate(45)" fill="#625DF5" rx="8"/>
    <rect x="-8" y="-8" width="16" height="16" transform="rotate(-45)" fill="#625DF5" rx="8"/>
    <rect x="-8" y="-8" width="16" height="16" transform="rotate(135)" fill="#625DF5" rx="8"/>
    <rect x="-8" y="-8" width="16" height="16" transform="rotate(-135)" fill="#625DF5" rx="8"/>
    <g transform="rotate(45)">
      <rect x="-8" y="-70" width="16" height="45" fill="#625DF5" rx="8"/>
      <rect x="-8" y="25" width="16" height="45" fill="#625DF5" rx="8"/>
      <rect x="25" y="-8" width="45" height="16" fill="#625DF5" rx="8"/>
      <rect x="-70" y="-8" width="45" height="16" fill="#625DF5" rx="8"/>
    </g>
  </g>
</svg>
