<svg xmlns="http://www.w3.org/2000/svg" viewBox="0 0 240 240">
  <g transform="translate(120, 120)">
    <circle r="32" fill="white"/>
    <g transform="rotate(0)">
      <rect x="-10" y="-85" width="20" height="50" rx="10" fill="#7B68EE"/>
    </g>
    <g transform="rotate(30)">
      <rect x="-10" y="-85" width="20" height="50" rx="10" fill="#7B68EE"/>
    </g>
    <g transform="rotate(60)">
      <rect x="-10" y="-85" width="20" height="50" rx="10" fill="#7B68EE"/>
    </g>
    <g transform="rotate(90)">
      <rect x="-10" y="-85" width="20" height="50" rx="10" fill="#7B68EE"/>
    </g>
    <g transform="rotate(120)">
      <rect x="-10" y="-85" width="20" height="50" rx="10" fill="#7B68EE"/>
    </g>
    <g transform="rotate(150)">
      <rect x="-10" y="-85" width="20" height="50" rx="10" fill="#7B68EE"/>
    </g>
    <g transform="rotate(180)">
      <rect x="-10" y="-85" width="20" height="50" rx="10" fill="#7B68EE"/>
    </g>
    <g transform="rotate(210)">
      <rect x="-10" y="-85" width="20" height="50" rx="10" fill="#7B68EE"/>
    </g>
    <g transform="rotate(240)">
      <rect x="-10" y="-85" width="20" height="50" rx="10" fill="#7B68EE"/>
    </g>
    <g transform="rotate(270)">
      <rect x="-10" y="-85" width="20" height="50" rx="10" fill="#7B68EE"/>
    </g>
    <g transform="rotate(300)">
      <rect x="-10" y="-85" width="20" height="50" rx="10" fill="#7B68EE"/>
    </g>
    <g transform="rotate(330)">
      <rect x="-10" y="-85" width="20" height="50" rx="10" fill="#7B68EE"/>
    </g>
  </g>
</svg>
